# xmcd
#
# Track frame offsets: 
#        182
#        9775
#        26742
#        35327
#        46460
#        55387
#        67625
#        76635
#        85845
#        96625
#        107547
#        113755
#        127265
#        139527
#        148657
#        159912
#        170335
#        180570
#        190620
#        201800
#        214055
#        219907
#        229775
#        235035
#
# Disc length: 3208 seconds
#
# Revision: 8
# Processed by: cddbd v1.5.2PL0 Copyright (c) Steve Scherf et al.
# Submitted via: ExactAudioCopy v1.0b1
#
DISCID=360c8618
DTITLE=Hank Williams - The Complete Hank Williams [CD 07)
DYEAR=1998
DGENRE=Country
TTITLE0=Rockin' Chair Money
TTITLE1=Cool Water
TTITLE2=Tennessee Border
TTITLE3=First Year Blues
TTITLE4=My Main Trial Is Yet To Come
TTITLE5=Wait For The Light To Shine
TTITLE6=We Live In Two Different Worlds
TTITLE7=Roly Poly
TTITLE8=Swing Wide Your Gate Of Love
TTITLE9=Dixie Cannonball
TTITLE10=Sundown And Sorrow
TTITLE11=The Devil's Train
TTITLE12=The Old Home
TTITLE13=Alone And Forsaken
TTITLE14=Heaven Holds All My Treasures
TTITLE15=Lost On The River
TTITLE16=A House Of Gold
TTITLE17=Singing Waterfall
TTITLE18=Dear Brother
TTITLE19='Neath A Cold Gray Tomb Of Stone
TTITLE20=Time Has Proven I Was Wrong
TTITLE21=No, Not Now
TTITLE22=When You're Tired Of Breaking Others' Hearts
TTITLE23=Honey Do You Love Me, Huh
EXTD=YEAR: 1998 ID3G:   2
EXTT0=
EXTT1=
EXTT2=
EXTT3=
EXTT4=
EXTT5=
EXTT6=
EXTT7=
EXTT8=
EXTT9=
EXTT10=
EXTT11=
EXTT12=
EXTT13=
EXTT14=
EXTT15=
EXTT16=
EXTT17=
EXTT18=
EXTT19=
EXTT20=
EXTT21=
EXTT22=
EXTT23=
PLAYORDER=
